<?xml version="1.0" encoding="utf-8"?>
<!-- Generator: Adobe Illustrator 23.0.2, SVG Export Plug-In . SVG Version: 6.00 Build 0)  -->
<svg version="1.1" id="Réteg_1" xmlns="http://www.w3.org/2000/svg" xmlns:xlink="http://www.w3.org/1999/xlink" x="0px" y="0px"
	 viewBox="0 0 140.9 136.2" style="enable-background:new 0 0 140.9 136.2;" xml:space="preserve">
<style type="text/css">
	.st0{fill:#E2281F;}
</style>
<path class="st0" d="M38.5,52l-0.2-0.3H37l-1.7,1.6l0.2,0.3L38.5,52z"/>
<path class="st0" d="M43.7,54h-2.6v7.8c0,0,0.6,0,2.5,0c3,0,4.3-1.7,4.3-4C47.9,55.2,46,54,43.7,54z M43.6,61.2h-1v-6.7
	c0,0,3.5,0,3.5,3.5C46.2,60.1,45.5,61.2,43.6,61.2z"/>
<path class="st0" d="M51.5,58.2h2.4v-0.7h-2.4v-2.8l4,0.7v-0.7v-0.7h-5.6v7.8h5.7v-0.7v-0.7l-4.1,0.6V58.2z"/>
<path class="st0" d="M61.2,57.4c-1.9-0.6-2.6-1-2.6-1.9c0-0.8,0.6-1.1,1.3-1.1c0.6,0,1.3,0.3,1.5,1.3l1.6-0.2
	c-0.5-1.4-1.9-1.9-3.1-1.9c-1.5,0-2.7,0.9-2.7,2.3c0,1.3,1,1.9,2.5,2.3c1.4,0.4,2,0.9,2,1.5c0,0.7-0.4,1.2-1.4,1.2
	c-0.9,0-1.5-0.6-1.7-1.3l-1.7,0.5c0.4,1.3,1.9,1.7,3.1,1.7c2,0,3.1-1,3.1-2.3C63.1,58.5,62.2,57.7,61.2,57.4z"/>
<path class="st0" d="M105.3,57.4c-1.9-0.6-2.6-1-2.6-1.9c0-0.8,0.6-1.1,1.3-1.1c0.6,0,1.3,0.3,1.5,1.3l1.6-0.2
	c-0.5-1.4-1.9-1.9-3.1-1.9c-1.5,0-2.7,0.9-2.7,2.3c0,1.3,1,1.9,2.5,2.3c1.4,0.4,2,0.9,2,1.5c0,0.7-0.4,1.2-1.4,1.2
	c-0.9,0-1.5-0.6-1.7-1.3l-1.6,0.4c0.4,1.3,1.9,1.7,3.1,1.7c2,0,3.1-1,3.1-2.3C107.3,58.5,106.3,57.7,105.3,57.4z"/>
<path class="st0" d="M74,54l-1.6,5.8L69.9,54h-1.9l3.5,7.8h0.5l3.3-7.8C75.4,54,74,54,74,54z"/>
<path class="st0" d="M81.6,52l-0.1-0.3h-1.3l-1.7,1.6l0.2,0.2L81.6,52z"/>
<path class="st0" d="M78.8,53.9l-3.3,7.9h0.8h0.8l0.6-2.3h2.2l0.8,2.3h1.7l-3.2-7.9H78.8z M77.8,59l0.8-2.8l1,2.8H77.8z"/>
<path class="st0" d="M87,58.1c2.2-0.2,2.8-1.3,2.8-2.1c0-1-0.8-1.9-2.2-1.9c-1.1,0-2.6,0-2.6,0h-0.8v7.8h1.5v-3.7h0.6
	c0.4,2,2.3,3.7,4.6,3.7l0.5-1.5C88,60.3,87,58.1,87,58.1z M85.6,57.7v-3.1c0,0,2.5-0.1,2.5,1.5C88.2,57.7,86.9,57.7,85.6,57.7z"/>
<path class="st0" d="M35.1,58.2h2.4v-0.7h-2.4v-2.8l4,0.7v-0.7v-0.7h-5.6v7.8h5.7v-0.7v-0.7l-4.1,0.7V58.2z"/>
<path class="st0" d="M95.8,53.8c-2.3,0-4,1.7-4,4.1c0,2.5,1.5,4.1,4,4.1s4-1.6,4-4.1C99.6,55.6,98.2,53.8,95.8,53.8z M95.8,61.5
	c-1.6,0-2.2-1.7-2.2-3.5c0-1.9,0.6-3.5,2.2-3.5c1.6,0,2.2,1.7,2.2,3.5C98,59.7,97.4,61.5,95.8,61.5z"/>
<path class="st0" d="M70.3,41.5c-3.5,0-6.9,0-10.5,0c-0.2,0-0.5,0-0.7,0c-0.7,0-1-0.3-1-1c0-0.7,0-1.3,0-2c0-2.5-0.1-5,0-7.4
	c0.1-2.1-0.5-4-1.4-5.7c-0.8-1.6-1.7-3.1-2.6-4.7c-0.9-1.6-1.7-3.3-2.1-5.1c-0.4-2.3-0.3-4.6,1.2-6.7c1-1.3,2.2-2.4,3.7-3
	c4-1.5,7.8-1.1,11.3,1.2c0.2,0.2,0.5,0.3,0.7,0.5c0.2,0.1,0.4,0.2,0.7,0.2c0-0.2,0.1-0.5,0.1-0.7c0-0.2,0-0.3,0-0.5
	c0.2-0.8-0.2-1.3-0.9-1.7c-0.9-0.5-1.3-1.6-1.1-2.4c0.4-1.3,1.3-1.9,2.4-1.9c1.3,0,2.1,0.6,2.4,1.9c0.2,0.8-0.2,1.9-1.1,2.4
	c-0.7,0.4-1,0.9-0.9,1.7c0.1,0.3,0,0.7,0,1c0,0.1,0.3,0.2,0.3,0.2c0.3-0.1,0.5-0.3,0.7-0.4C73,6,74.7,5.4,76.7,5
	c3.1-0.6,6.1-0.2,8.7,1.7c1.7,1.3,2.7,3,3,5.2c0.4,2.4-0.3,4.6-1.3,6.7c-1.1,2.3-2.4,4.6-3.5,6.8c-0.8,1.6-1.2,3.2-1.2,5.1
	c0.1,3,0,6.2,0,9.2c0,0.2,0,0.3,0,0.5c0,0.9-0.3,1.2-1.2,1.2c-3,0-5.9,0-8.9,0C71.9,41.5,71,41.5,70.3,41.5z M78.7,8.7
	c0.1,0,0.2-0.1,0.2-0.1c0.3-0.2,0.5-0.1,0.6,0.1c0.2,0.3,0.1,0.5-0.1,0.6c-0.3,0.3-0.2,0.5-0.1,0.9c0.2,0.6,0.5,1.1,0.4,1.9
	c0,0.4,0.2,0.5,0.5,0.3c0.4-0.2,0.6,0.1,0.6,0.4c0.1,0.3-0.2,0.6-0.5,0.5c-0.4-0.2-0.5,0-0.5,0.3c0,0.4-0.2,0.7-0.2,1.1
	c0,1.2-0.2,2.3-0.8,3.3c-0.1,0.2-0.1,0.5,0.3,0.6c0.1,0,0.2,0.1,0.2,0.1c0.1,0.2,0.2,0.4,0.2,0.5c-0.1,0.2-0.3,0.4-0.6,0.3
	c-0.5-0.3-0.6-0.1-0.6,0.4c0,0.3-0.1,0.6-0.2,0.8c-0.2,0.5-0.5,1-0.7,1.4c-0.2,0.4-0.1,0.4,0.3,0.3c0.1,0,0.4,0.2,0.6,0.3
	c0,0-0.1,0.3-0.2,0.4c-0.2,0.3-0.4,0.2-0.6,0c-0.4-0.4-0.5,0-0.5,0.2c-0.1,0.3,0.1,0.6,0,0.9c-0.1,0.3-0.5,0.5-0.6,0.8
	c-0.2,0.3-0.2,0.6-0.3,0.9c0,0.3,0,0.4,0.3,0.2c0.1-0.1,0.4,0.1,0.6,0.3c0.1,0,0,0.3-0.1,0.4s-0.4,0.2-0.5,0.1
	c-0.5-0.2-0.6-0.2-0.5,0.3c0.1,0.6-0.2,1-0.4,1.5c-0.2,0.9,0,1.2,0.9,1.2c0.8,0,1.6-0.3,2.4,0c0.3,0.1,0.4-0.2,0.2-0.5
	c-0.3-0.5-0.3-0.5,0.2-1c0.4-0.4,0.5-0.9,0.5-1.5c0-0.3-0.2-0.1-0.3-0.1c-0.2,0-0.4-0.2-0.6-0.3c-0.1,0,0-0.3,0.1-0.4
	c0.2-0.2,0.4-0.3,0.6,0c0.3,0.3,0.5,0.3,0.5-0.2c0-0.6,0.1-1,0.5-1.5c0.3-0.3,0.4-0.8,0.5-1.3c0.1-0.3-0.2-0.1-0.3-0.1
	c-0.2-0.1-0.5-0.1-0.6-0.3c-0.1-0.1,0.1-0.4,0.2-0.5c0.1-0.1,0.4,0,0.5,0c0.3,0.1,0.6,0.1,0.6-0.2c0-0.1,0-0.3,0-0.5
	c0-0.2,0-0.5,0.1-0.5c0.9-0.6,1-1.5,1.4-2.4c0.2-0.3,0.1-0.5-0.1-0.8c-0.3-0.4-0.2-0.7,0.3-0.8c0.5-0.1,0.6-0.3,0.7-0.6
	c0.2-0.5,0.2-1,0.4-1.4c0.2-0.4,0.2-0.7-0.1-1c-0.3-0.2-0.1-0.4,0.1-0.6c0.4-0.5,0.4-1.1,0.1-1.6c-0.2-0.3-0.5-0.6-0.1-1
	c0.1-0.1,0-0.3,0-0.5c-0.5-1.7-1.6-3-3.3-4c-0.4-0.2-0.7-0.3-1.1,0.1c-0.3,0.3-0.5,0.2-0.7-0.1c-0.6-0.7-1.1-0.7-1.7,0
	c-0.2,0.2-0.5,0.4-0.7,0.1C76.4,6,76,6.2,75.7,6.5c-0.1,0.1-0.1,0.2-0.2,0.3C75.6,6.9,75.7,7,75.8,7C76.4,7,77,7.1,77.7,7.4
	c-0.1-0.1,0.1-0.1,0.2-0.3C78,7,78.3,6.8,78.4,7c0.2,0.2,0.2,0.4,0.1,0.7C78.2,8.5,78.3,8.7,78.7,8.7z M64.1,30.2
	c1.3,0,1.4-0.2,1-1.5c-0.1-0.5-0.2-1-0.3-1.6c0-0.3-0.1-0.5-0.4-0.2c-0.2,0.2-0.4,0.3-0.6,0.1c-0.1-0.1-0.2-0.3-0.2-0.4
	c0.1-0.3,0.3-0.5,0.6-0.4c0.2,0.1,0.4,0.1,0.3-0.1c-0.1-0.5-0.3-1-0.5-1.3s-0.6-0.6-0.3-1.1c0.1-0.1-0.2-0.4-0.2-0.7
	c-0.2,0.1-0.3,0.2-0.5,0.3c-0.2,0-0.4,0-0.5-0.1s-0.2-0.3-0.1-0.4c0.1-0.2,0.3-0.3,0.5-0.3c0.3,0,0.6,0.3,0.4-0.3
	c-0.1-0.3-0.2-0.6-0.3-0.8c-0.3-0.5-0.8-1-0.6-1.7l-0.3-0.2c-0.4,0.3-0.7,0.2-0.8-0.2c-0.1-0.1,0.1-0.5,0.3-0.6
	c0.5-0.2,0.4-0.4,0.3-0.8c-0.1-0.3-0.3-0.6-0.4-0.9c-0.1-0.2-0.2-0.4-0.2-0.6c-0.1-1-0.2-2-0.2-3c0-0.3-0.1-0.2-0.4-0.2
	c-0.4,0.1-0.7-0.3-0.6-0.5c0.1-0.3,0.3-0.5,0.7-0.3c0.4,0.3,0.6,0.1,0.5-0.3c-0.1-0.7,0.2-1.2,0.5-1.9c0.2-0.4,0.4-0.7-0.2-0.9
	c-0.2-0.1-0.3-0.4-0.1-0.6c0.2-0.2,0.4-0.3,0.6-0.1c0.1,0.1,0.1,0.1,0.2,0.2c0.2,0.3,0.4,0.2,0.6,0c0.2-0.2,0.2-0.3,0-0.5
	c-0.1-0.1-0.2-0.2-0.3-0.3c-0.2-0.3,0-0.5,0.2-0.6c0.1-0.1,0.5,0,0.5,0.1c0.2,0.5,0.5,0.4,0.9,0.2C64.8,7.1,65.4,7,66.1,7
	C66.2,7,66.3,7,66.5,7c0,0,0-0.1-0.1-0.1c-0.4-0.2-0.7-0.4-1.1-0.5c-0.2,0-0.5,0.1-0.6,0.3c-0.5,0.2-0.7,0.2-0.9-0.1
	c-0.3-0.7-0.9-0.4-1.4-0.5c-0.4,0.7-0.8,1-1.5,0.3c0,0-0.2,0-0.2,0.1C59,7,58.1,8.1,57.4,9.7c-0.1,0.2,0,0.3,0.2,0.2
	c0.4-0.2,0.6,0.1,0.7,0.3c0,0.1-0.1,0.3-0.2,0.4c-0.2,0.3-0.4,0.1-0.6-0.1c-0.3-0.3-0.4-0.3-0.4,0.1c0,0.5,0,1-0.2,1.5
	c-0.2,0.5-0.4,1.1,0.1,1.6c0.1,0.1,0.1,0.3,0,0.4c-0.5,1,0.3,1.9,0.4,2.7c0,0.1,0.2,0.2,0.3,0.3c0.6,0.2,0.8,0.5,0.4,1.1
	c-0.1,0.1-0.1,0.3,0,0.4c0.3,0.8,0.6,1.6,1,2.2c0.3,0.4,0.5,0.7,0.5,1.2c0,0.4,0.2,0.5,0.5,0.3c0.3-0.2,0.5,0,0.6,0.2
	c0.2,0.3,0,0.5-0.2,0.6c-0.6,0.2-0.5,0.5-0.3,1c0.3,0.6,0.7,1.1,0.6,1.9c0,0.3,0.2,0.3,0.4,0.2c0.3-0.2,0.6-0.1,0.7,0.2
	c0.2,0.4-0.1,0.5-0.4,0.6c-0.1,0.1-0.3,0.1-0.5,0.1c0.4,0.4-0.1,1.1,0.5,1.4c0.4,0.2,0.5,0.5,0.1,0.9c-0.1,0.1-0.1,0.3-0.2,0.4
	c0.2,0.1,0.4,0.2,0.5,0.2c0.4-0.2,0.8-0.2,1.3,0C63.6,30.2,63.9,30.2,64.1,30.2z M81.4,38.3c0.3,0,0.4-0.7,0-1
	c-0.4-0.3-0.8-0.9-0.1-1.7c0.3-0.4,0.4-1.1-0.1-1.1c-6.6,0-14.7,0-21.2,0c-1.3,0-0.8,0.8-0.6,1c0.8,0.8,0.5,1.3-0.2,1.9
	c-0.3,0.2-0.2,1,0.2,1s0.6,0,0.9,0C63.7,38.3,81.1,38.3,81.4,38.3z M59.7,30.2c0.8,0,0.8,0,0.8-0.7c0-0.3,0-0.6,0-0.9
	c-0.5-2.5-1.4-5-2.4-7.2c-0.9-2-1.7-4-2.1-6.1c-0.4-1.9-0.3-3.6,0.3-5.5c0.4-1.3,1.2-2.3,2.2-3.2c0.1-0.1,0.1-0.2,0.2-0.3
	c-0.1,0-0.2-0.1-0.3-0.1c-2.6,0.8-4.6,2.4-5.3,5.1c-0.4,1.1-0.4,2.3-0.1,3.5c0.5,2.3,1.6,4.3,2.7,6.3c1.4,2.6,2.8,5.2,3.3,8.3
	C59.1,30.2,59.3,30.2,59.7,30.2z M78.9,13.4c0.1-0.8-0.2-1.9-0.5-2.8c-0.3-1-0.9-1.9-2-2.2c-0.9-0.3-1.9-0.4-3-0.1
	c-0.1,0-0.2,0.2-0.3,0.2c0.3,0.1,0.3,0.2,0.3,0.2c1.1,0.5,1.6,1.5,2,2.7c0.3,0.9,0.2,1.9,0.2,2.8c0.1,1.4-0.1,2.7-0.3,4.1
	c-0.5,2.2-1.1,4.5-1.6,6.7c-0.3,1.5-0.6,3-0.6,4.6c0,0.6,0.1,0.6,0.6,0.7c0.5,0,0.7-0.2,0.8-0.6c0.1-0.2,0-0.5,0.1-0.7
	c0.2-1.1,0.3-2.3,0.6-3.5c0.8-2.4,1.9-4.8,2.6-7.2C78.4,16.7,78.9,15.2,78.9,13.4z M88,13.2c-0.1-1.5-0.5-3.1-1.7-4.6
	c-1.1-1.4-2.5-2.1-4.1-2.5c-0.1,0-0.2,0-0.2,0.1c0,0.1,0,0.2,0.1,0.2c0.3,0.2,0.6,0.4,0.9,0.7c1.4,1.6,2.1,3.5,2.3,5.6
	c0.1,1.6-0.2,3.1-0.8,4.6c-0.9,2.5-1.9,5-3,7.3c-0.6,1.5-0.9,3.1-1.3,4.6c0,0.2,0,0.3,0,0.5c0,0.1,0.1,0.3,0.1,0.3
	c0.4,0,0.8,0.1,1.1,0c0.1,0,0.2-0.4,0.2-0.6c0.4-2.2,1.2-4.3,2.3-6.2c1-1.9,1.9-3.6,2.8-5.5C87.5,16.4,88,14.9,88,13.2z M70.5,31.2
	c-3.3,0-6.7,0-10,0c-1.5,0-1.4-0.1-1.4,1.3c0,0.6,0.1,0.7,0.7,0.7c0.2,0,21.1,0,21.3,0c0.1,0,0.4-0.1,0.4-0.4c0-0.6,0-0.8,0-1.2
	c0-0.3-0.2-0.3-0.4-0.4c-0.2,0-0.5,0-0.7,0C77.2,31.2,73.8,31.2,70.5,31.2z M61.7,13.7c0.2,1,0.3,1.9,0.6,3c0.7,2.2,1.5,4.5,2.3,6.7
	c0.7,1.9,1.4,4,1.4,6.1c0,0.2,0,0.3,0.1,0.5c0.1,0.3,0.5,0.5,1.1,0.4c0.3-0.1,0.4-0.3,0.3-0.6c-0.2-1.4-0.3-2.8-0.6-4.1
	c-0.4-2-0.9-4-1.5-6.1c-0.5-1.9-0.7-3.8-0.7-5.7c0-1.1,0.3-2.2,0.8-3.2c0.3-0.6,0.7-1,1.3-1.3c0.2-0.1,0.4-0.2,0.6-0.4l-0.1-0.4
	c-0.5,0-1.1-0.1-1.6-0.1c-1.6,0.1-2.7,1-3.3,2.4C62,11.6,61.7,12.6,61.7,13.7z M69.9,19.9c0-3,0-6.1,0-9.1c0-0.2,0-0.5,0-0.7
	c0-0.4-0.2-0.6-0.6-0.6c-0.2,0-0.5,0-0.7,0c-0.3,0-0.5,0.2-0.3,0.5c0.2,0.3,0.1,0.6-0.2,0.7c-0.3,0.2-0.5-0.1-0.6-0.3
	c-0.1-0.2-0.2-0.5-0.5-0.2c-0.1,0.1-0.2,0.2-0.3,0.3c-0.3,0.3-0.3,0.4,0.1,0.6c0.2,0.1,0.4,0.3,0.2,0.6c-0.1,0.2-0.3,0.4-0.6,0.2
	c-0.4-0.2-0.5,0.1-0.5,0.3c-0.1,0.7-0.3,1.5-0.2,2.2c0.1,1.1,0.3,2.1,0.4,3.2c0.1,0.5,0,1,0.7,1c0.3,0,0.4,0.4,0.1,0.7
	c-0.5,0.4-0.3,0.8-0.1,1.3c0.2,0.4,0.3,0.9,0.3,1.3c0,0.4,0.1,0.7,0.6,0.4c0.3-0.2,0.5,0.1,0.6,0.3c0.2,0.3-0.1,0.5-0.3,0.6
	c-0.1,0.1-0.2,0-0.4,0.1c-0.1,0-0.2,0.2-0.2,0.2c0.2,0.4,0,0.9,0.5,1.2c0.3,0.2,0.5,0.5,0.2,0.9c0,0.2,0,0.6,0,0.9
	c0.1,0.7,0.2,1.3,0.3,1.9c0,0.3,0.2,0.3,0.4,0.2c0.3-0.2,0.6-0.1,0.7,0.2c0.1,0.1,0,0.3-0.1,0.4c-0.2,0.2-0.4,0.3-0.6,0.1
	c-0.1-0.1-0.2,0-0.3-0.1c0,0.1,0,0.3,0.1,0.4c0.2,0.4,0.7,0.3,1,0.2c0.1,0,0.2-0.4,0.3-0.6c0-0.3,0-0.6,0-0.9
	C69.9,25.8,69.9,22.9,69.9,19.9z M70.9,19.9c0,3.1,0,6.2,0,9.4c0,0.8,0.3,1,1,0.8c0.1,0,0.3-0.2,0.3-0.3c0-0.3-0.1-0.2-0.4-0.2
	c-0.4,0-0.7-0.2-0.7-0.5c0-0.3,0.2-0.5,0.6-0.5c0.2,0.1,0.4,0.2,0.4-0.2c0-1,0.6-2,0.3-3c0-0.1,0.1-0.3,0.2-0.4
	c0.3-0.3,0.3-0.6,0.4-0.9c0.1-0.4,0.2-0.7-0.3-1c-0.4-0.2-0.3-0.6,0.1-0.8c0.2-0.1,0.6-0.1,0.6-0.3c0.2-0.7,0.5-1.4,0.5-2.1
	c0.1-0.6-0.4-1.3,0.5-1.6c0.1,0,0-0.5,0.1-0.7c0.2-0.5,0.1-0.6-0.4-0.6c-0.2,0-0.4-0.3-0.4-0.5c0-0.3,0.3-0.6,0.6-0.4
	c0.3,0.2,0.4,0,0.4-0.2c0.1-1,0.3-2.1,0-3.1c-0.1-0.4-0.1-0.7-0.7-0.8c-0.3,0-0.5-0.3-0.3-0.7c0.1-0.2,0.5-0.3,0.3-0.7
	c-0.2-0.2-0.3-0.5-0.5-0.7c0-0.1-0.2,0-0.2-0.1c0,0.1,0,0.2,0,0.3c0.1,0.4-0.1,0.6-0.4,0.6c-0.1,0-0.3-0.1-0.4-0.2
	c-0.2-0.2-0.1-0.4,0.1-0.6c0.3-0.3,0.1-0.4-0.2-0.4c-0.3,0-0.7,0-1,0c-0.3,0-0.5,0.2-0.5,0.6c0,0.2,0,0.5,0,0.7
	C70.9,13.9,70.9,16.9,70.9,19.9z M70.2,40.5c3.3,0,6.7,0,10,0c0.3,0,0.7,0,1-0.1c0.2-0.1,0.4-0.4,0.4-0.6s-0.2-0.5-0.4-0.6
	c-0.2-0.1-0.5-0.1-0.7-0.1c-6.7,0-13.6,0-20.3,0c-0.2,0-0.5-0.1-0.7,0.1c-0.2,0.1-0.4,0.4-0.4,0.6s0.2,0.5,0.4,0.6
	c0.3,0.1,0.7,0.1,1,0.1C63.7,40.5,67,40.5,70.2,40.5z M71.9,2.8c0-0.7-0.8-1.6-1.5-1.6s-1.5,0.8-1.5,1.6c0,0.7,0.7,1.3,1.5,1.3
	C71.2,4.2,71.9,3.6,71.9,2.8z"/>
<path class="st0" d="M81.1,7.7c-0.3,0.2-0.5,0.4-0.6,0.4c-0.2,0-0.3-0.3-0.5-0.5c0.2-0.1,0.3-0.4,0.5-0.4
	C80.7,7.3,80.8,7.5,81.1,7.7z"/>
<path class="st0" d="M82.3,9c-0.3,0.2-0.4,0.5-0.6,0.5s-0.5-0.3-0.5-0.4c0-0.2,0.2-0.5,0.4-0.5C81.9,8.6,82.1,8.7,82.3,9z"/>
<path class="st0" d="M81.1,10.2c-0.3,0.2-0.5,0.4-0.6,0.4c-0.2,0-0.4-0.3-0.4-0.5s0.3-0.4,0.5-0.4C80.7,9.8,80.8,10.1,81.1,10.2z"/>
<path class="st0" d="M83,10.8c-0.2-0.2-0.5-0.4-0.5-0.6c0-0.2,0.3-0.5,0.4-0.5c0.2,0,0.5,0.2,0.5,0.4S83.2,10.6,83,10.8z"/>
<path class="st0" d="M82.3,11.6C82,11.8,81.8,12,81.7,12c-0.2,0-0.4-0.3-0.4-0.5s0.3-0.4,0.5-0.4C81.9,11.1,82.1,11.3,82.3,11.6z"/>
<path class="st0" d="M83.6,12.8c-0.3,0.2-0.5,0.4-0.6,0.4c-0.2,0-0.4-0.3-0.4-0.5c0-0.2,0.3-0.4,0.5-0.4
	C83.2,12.4,83.3,12.6,83.6,12.8z"/>
<path class="st0" d="M82.3,14c-0.3,0.2-0.4,0.5-0.6,0.5s-0.3-0.3-0.5-0.4c0.2-0.2,0.3-0.4,0.5-0.5C81.9,13.6,82.1,13.8,82.3,14z"/>
<path class="st0" d="M81.1,15.3c-0.3,0.2-0.4,0.5-0.6,0.5s-0.3-0.3-0.5-0.4c0.2-0.2,0.3-0.5,0.5-0.5C80.6,14.8,80.8,15.1,81.1,15.3z
	"/>
<path class="st0" d="M83.6,15.3c-0.3,0.2-0.4,0.5-0.6,0.5s-0.3-0.3-0.5-0.4c0.1-0.2,0.3-0.5,0.5-0.5C83.1,14.8,83.3,15.1,83.6,15.3z
	"/>
<path class="st0" d="M81.7,17.2c-0.2-0.3-0.4-0.5-0.4-0.6c0-0.2,0.3-0.4,0.5-0.4s0.4,0.3,0.4,0.5C82.2,16.7,81.9,16.9,81.7,17.2z"/>
<path class="st0" d="M80.4,17.2c0.2,0.3,0.5,0.4,0.5,0.6s-0.3,0.5-0.4,0.5c-0.2,0-0.4-0.3-0.5-0.4C79.9,17.7,80.2,17.5,80.4,17.2z"
	/>
<path class="st0" d="M81.1,19c0.3-0.2,0.5-0.4,0.6-0.4c0.2,0,0.4,0.3,0.4,0.5c0,0.2-0.3,0.4-0.5,0.4S81.3,19.3,81.1,19z"/>
<path class="st0" d="M81.1,20.4c-0.3,0.2-0.4,0.5-0.6,0.5s-0.3-0.3-0.5-0.4c0.2-0.2,0.3-0.4,0.5-0.5C80.6,19.9,80.8,20.1,81.1,20.4z
	"/>
<path class="st0" d="M79.8,21.6c-0.3,0.2-0.5,0.4-0.6,0.4c-0.2,0-0.4-0.3-0.4-0.5s0.3-0.4,0.5-0.4C79.4,21.1,79.6,21.5,79.8,21.6z"
	/>
<path class="st0" d="M79.2,23.5c0.2,0.3,0.4,0.5,0.4,0.6c0,0.2-0.3,0.4-0.5,0.4s-0.4-0.3-0.4-0.5C78.8,24,78.9,23.7,79.2,23.5z"/>
<path class="st0" d="M78.6,25.4c-0.3,0.2-0.4,0.5-0.6,0.5s-0.3-0.3-0.5-0.4c0.2-0.2,0.3-0.4,0.5-0.5C78.1,24.9,78.3,25.2,78.6,25.4z
	"/>
<path class="st0" d="M77.9,27.3c0.2,0.3,0.4,0.5,0.4,0.6c0,0.2-0.3,0.4-0.5,0.4s-0.4-0.3-0.4-0.5C77.5,27.7,77.8,27.5,77.9,27.3z"/>
<path class="st0" d="M77.3,29.1c-0.3,0.2-0.4,0.5-0.6,0.5s-0.3-0.3-0.5-0.4c0.2-0.2,0.3-0.5,0.5-0.5S77.1,28.9,77.3,29.1z"/>
<path class="st0" d="M60.2,7.1c0.3,0.3,0.5,0.4,0.5,0.6s-0.3,0.3-0.4,0.5c-0.2-0.1-0.5-0.3-0.5-0.5C59.8,7.6,60.1,7.5,60.2,7.1z"/>
<path class="st0" d="M59.6,9.1c-0.3,0.2-0.5,0.4-0.6,0.4c-0.2,0-0.4-0.3-0.4-0.5s0.3-0.4,0.5-0.4C59.2,8.6,59.5,8.8,59.6,9.1z"/>
<path class="st0" d="M60.3,9.7c0.2,0.3,0.4,0.5,0.4,0.6c0,0.2-0.3,0.4-0.5,0.4c-0.2,0-0.4-0.3-0.4-0.5C59.8,10.1,60.1,9.8,60.3,9.7z
	"/>
<path class="st0" d="M59.6,11.5C59.3,11.7,59.2,12,59,12c-0.2,0-0.5-0.3-0.5-0.4c0-0.2,0.2-0.5,0.4-0.5
	C59.2,11.1,59.5,11.3,59.6,11.5z"/>
<path class="st0" d="M58.5,12.8c-0.3,0.2-0.4,0.5-0.6,0.5s-0.5-0.3-0.5-0.4c0-0.2,0.3-0.5,0.4-0.5C58,12.3,58.1,12.6,58.5,12.8z"/>
<path class="st0" d="M59.6,14.1c-0.3,0.2-0.5,0.4-0.6,0.4c-0.2,0-0.3-0.3-0.5-0.5c0.2-0.1,0.3-0.4,0.5-0.4
	C59.2,13.6,59.5,13.9,59.6,14.1z"/>
<path class="st0" d="M58.5,15.3c-0.3,0.2-0.4,0.5-0.6,0.5s-0.3-0.3-0.5-0.4c0.2-0.2,0.3-0.5,0.5-0.5C58,14.8,58.1,15.1,58.5,15.3z"
	/>
<path class="st0" d="M61,15.3c-0.3,0.2-0.5,0.4-0.7,0.4s-0.3-0.3-0.5-0.5c0.2-0.2,0.3-0.4,0.5-0.4C60.6,14.9,60.7,15.1,61,15.3z"/>
<path class="st0" d="M59.6,16.5C59.3,16.6,59.2,17,59,17c-0.2,0-0.3-0.3-0.5-0.4c0.2-0.2,0.3-0.4,0.5-0.5
	C59.2,16.1,59.5,16.3,59.6,16.5z"/>
<path class="st0" d="M61,17.8c-0.3,0.2-0.5,0.4-0.6,0.4c-0.2,0-0.4-0.3-0.4-0.5s0.3-0.4,0.5-0.4C60.6,17.4,60.6,17.6,61,17.8z"/>
<path class="st0" d="M59,18.4c0.2,0.3,0.4,0.5,0.4,0.6c0,0.2-0.3,0.4-0.5,0.4c-0.2,0-0.4-0.3-0.4-0.5C58.6,18.9,58.8,18.8,59,18.4z"
	/>
<path class="st0" d="M61,20.4c-0.3,0.2-0.4,0.5-0.6,0.5s-0.3-0.3-0.5-0.4c0.1-0.2,0.3-0.5,0.5-0.5C60.5,19.9,60.6,20.1,61,20.4z"/>
<path class="st0" d="M61,21.5c0.3-0.2,0.5-0.4,0.6-0.4c0.2,0,0.4,0.3,0.4,0.5S61.7,22,61.5,22C61.3,22,61.2,21.7,61,21.5z"/>
<path class="st0" d="M61.6,24.7c-0.2-0.3-0.4-0.5-0.4-0.6c0-0.2,0.3-0.4,0.5-0.4c0.2,0,0.4,0.3,0.4,0.5
	C62.1,24.2,61.7,24.5,61.6,24.7z"/>
<path class="st0" d="M62.8,24.7c0.2,0.3,0.5,0.4,0.5,0.6c0,0.2-0.3,0.3-0.4,0.5c-0.2-0.1-0.5-0.3-0.5-0.5
	C62.3,25.2,62.6,25.1,62.8,24.7z"/>
<path class="st0" d="M63.4,27.9c-0.3,0.2-0.5,0.4-0.6,0.4c-0.2,0-0.4-0.3-0.4-0.5c0-0.2,0.3-0.4,0.5-0.4
	C63.1,27.5,63.2,27.7,63.4,27.9z"/>
<path class="st0" d="M64.7,29.1c-0.3,0.2-0.4,0.5-0.6,0.5c-0.2,0-0.5-0.3-0.5-0.4c0-0.2,0.2-0.5,0.4-0.5
	C64.3,28.7,64.4,28.9,64.7,29.1z"/>
<path class="st0" d="M66.5,37.3c-0.5,0-0.9-0.5-0.9-0.9c0-0.5,0.5-0.9,0.9-1c0.4,0,1,0.5,1,0.9C67.5,36.9,67,37.4,66.5,37.3z"/>
<path class="st0" d="M74.2,37.3c-0.5,0-0.9-0.5-0.9-0.9s0.5-0.9,0.9-1c0.5,0,1,0.5,1,1C75.2,36.9,74.7,37.3,74.2,37.3z"/>
<path class="st0" d="M78.3,37.4c-0.6,0-1-0.4-1-1c0-0.4,0.4-0.9,0.9-0.9s1.1,0.6,1.1,1C79.2,36.9,78.8,37.4,78.3,37.4z"/>
<path class="st0" d="M63.4,36.4c0,0.6-0.4,1-1,1c-0.4,0-0.9-0.4-1-0.9c0-0.5,0.6-1.1,1-1C62.9,35.4,63.4,35.9,63.4,36.4z"/>
<path class="st0" d="M71.4,36.5c0,0.6-0.3,0.9-0.9,0.9s-0.9-0.3-0.9-0.9c0-0.5,0.5-1,0.9-1C70.9,35.4,71.4,36,71.4,36.5z"/>
<path class="st0" d="M69.1,10.8c0.2,0.3,0.4,0.5,0.4,0.6c0,0.2-0.3,0.4-0.5,0.4s-0.4-0.3-0.4-0.5C68.7,11.3,68.9,11.2,69.1,10.8z"/>
<path class="st0" d="M68.5,12.8c-0.3,0.2-0.4,0.5-0.6,0.5s-0.5-0.3-0.5-0.4c0-0.2,0.2-0.5,0.4-0.5C68,12.3,68.2,12.6,68.5,12.8z"/>
<path class="st0" d="M67.2,14.1c-0.3,0.2-0.5,0.4-0.6,0.4c-0.2,0-0.3-0.3-0.5-0.5c0.2-0.2,0.3-0.4,0.5-0.4
	C66.8,13.6,67,13.9,67.2,14.1z"/>
<path class="st0" d="M69.8,14c-0.3,0.2-0.4,0.5-0.6,0.5s-0.3-0.3-0.5-0.4c0.2-0.2,0.3-0.5,0.5-0.5C69.3,13.6,69.5,13.8,69.8,14z"/>
<path class="st0" d="M68.5,15.3c-0.3,0.2-0.5,0.4-0.6,0.4c-0.2,0-0.4-0.3-0.4-0.5c0-0.2,0.3-0.4,0.5-0.4
	C68.1,14.9,68.2,15.1,68.5,15.3z"/>
<path class="st0" d="M67.2,16.5c-0.3,0.2-0.4,0.5-0.6,0.5s-0.3-0.3-0.5-0.4c0.2-0.2,0.3-0.5,0.5-0.5C66.8,16.1,67,16.3,67.2,16.5z"
	/>
<path class="st0" d="M69.1,17.2c-0.2-0.3-0.5-0.4-0.5-0.6c0-0.2,0.3-0.5,0.4-0.5c0.2,0,0.5,0.3,0.5,0.4
	C69.6,16.7,69.3,16.9,69.1,17.2z"/>
<path class="st0" d="M68.5,17.8c-0.3,0.2-0.5,0.4-0.6,0.4c-0.2,0-0.4-0.3-0.4-0.5s0.3-0.4,0.5-0.4C68.1,17.4,68.2,17.6,68.5,17.8z"
	/>
<path class="st0" d="M69.1,19.8c-0.2-0.2-0.5-0.4-0.5-0.6c0-0.2,0.3-0.5,0.4-0.5c0.2,0,0.5,0.2,0.5,0.4
	C69.6,19.3,69.3,19.4,69.1,19.8z"/>
<path class="st0" d="M68.5,20.4c-0.3,0.2-0.5,0.4-0.6,0.4c-0.2,0-0.3-0.3-0.5-0.5c0.2-0.1,0.3-0.4,0.5-0.4
	C68.1,19.9,68.2,20.1,68.5,20.4z"/>
<path class="st0" d="M69.1,20.9c0.2,0.3,0.5,0.4,0.5,0.6S69.2,22,69.2,22c-0.2,0-0.5-0.3-0.5-0.4C68.6,21.5,68.9,21.2,69.1,20.9z"/>
<path class="st0" d="M69.8,24.1c-0.3,0.2-0.4,0.5-0.6,0.5s-0.3-0.3-0.5-0.4c0.1-0.2,0.3-0.5,0.5-0.5S69.5,23.9,69.8,24.1z"/>
<path class="st0" d="M69.8,26.6c-0.3,0.2-0.4,0.5-0.6,0.5s-0.3-0.3-0.5-0.4c0.2-0.2,0.3-0.5,0.5-0.5S69.5,26.3,69.8,26.6z"/>
<path class="st0" d="M71.6,10.8c0.2,0.2,0.5,0.4,0.5,0.6s-0.3,0.5-0.4,0.5c-0.2,0-0.5-0.2-0.5-0.4C71.1,11.3,71.4,11.2,71.6,10.8z"
	/>
<path class="st0" d="M73,13.4c-0.2-0.3-0.5-0.4-0.5-0.6s0.3-0.3,0.4-0.5c0.2,0.2,0.4,0.3,0.5,0.5C73.4,12.9,73.1,13.1,73,13.4z"/>
<path class="st0" d="M71.6,13.4c0.2,0.2,0.5,0.4,0.5,0.6c0,0.2-0.3,0.5-0.4,0.5c-0.2,0-0.5-0.2-0.5-0.4
	C71.1,13.9,71.4,13.7,71.6,13.4z"/>
<path class="st0" d="M74.8,14c-0.3,0.2-0.4,0.5-0.6,0.5s-0.3-0.3-0.5-0.4c0.2-0.2,0.3-0.5,0.5-0.5C74.3,13.6,74.6,13.8,74.8,14z"/>
<path class="st0" d="M73.5,15.3c-0.3,0.2-0.4,0.5-0.6,0.5s-0.3-0.3-0.5-0.4c0.2-0.2,0.3-0.4,0.5-0.5C73,14.8,73.2,15.1,73.5,15.3z"
	/>
<path class="st0" d="M71,16.5c0.3-0.2,0.5-0.4,0.7-0.4c0.2,0,0.3,0.3,0.5,0.5C72,16.7,71.9,17,71.7,17C71.4,17,71.2,16.7,71,16.5z"
	/>
<path class="st0" d="M73.5,17.8c-0.3,0.2-0.4,0.5-0.6,0.5s-0.5-0.3-0.5-0.4c0-0.2,0.2-0.5,0.4-0.5C73,17.3,73.2,17.6,73.5,17.8z"/>
<path class="st0" d="M72.2,19c-0.3,0.2-0.4,0.5-0.6,0.5s-0.3-0.3-0.5-0.4c0.2-0.2,0.3-0.5,0.5-0.5C71.9,18.6,72,18.8,72.2,19z"/>
<path class="st0" d="M73.5,20.4c-0.3,0.2-0.4,0.5-0.6,0.5s-0.5-0.3-0.5-0.4c0-0.2,0.3-0.5,0.4-0.5C73,19.9,73.2,20.1,73.5,20.4z"/>
<path class="st0" d="M72.2,21.6c-0.3,0.2-0.5,0.4-0.7,0.4c-0.2,0-0.3-0.3-0.5-0.5c0.2-0.1,0.3-0.4,0.5-0.4
	C71.9,21.1,72,21.5,72.2,21.6z"/>
<path class="st0" d="M71.6,23.5c0.2,0.2,0.5,0.4,0.5,0.6s-0.3,0.5-0.4,0.5c-0.2,0-0.5-0.2-0.5-0.4C71.1,24,71.4,23.7,71.6,23.5z"/>
<path class="st0" d="M71.6,26c0.2,0.2,0.5,0.4,0.5,0.6s-0.3,0.5-0.4,0.5c-0.2,0-0.5-0.2-0.5-0.4C71.1,26.5,71.4,26.3,71.6,26z"/>
<path class="st0" d="M96.3,41.4c-1.3-0.2-2.5-0.4-3.8,0.1c-0.4,0.2-0.8,0.5-1.2,0.6c-0.2,0.1-0.4,0-0.7,0c0-0.2,0-0.5,0.1-0.7
	c0.6-0.5,0.8-1.2,0.9-2c0.1-0.5,0.2-1,0.1-1.5c-0.2-1.3-0.5-2.6-0.7-4c-0.1-1.1,0-2.3,0.6-3.3c1-1.6,4-1.6,4.6,0.3
	c0.1,0.2,0.2,0.4,0.2,0.6c0.2,0.6,0.2,0.6,1,0.6c1.1,0.1,2,0.5,2.6,1.5c0.3,0.5,0.6,1.1,0.5,1.9c-0.1,0.6,0.3,0.9,0.7,0.9
	c1,0.2,1.5,0.8,1.9,1.6c0.4,0.9,0.2,1.6-0.3,2.3c-0.7,0.9-1.6,1.4-2.8,1.4C99.8,41.8,97.3,41.6,96.3,41.4z M92.5,39.6
	c-0.1,0.8,0.1,0.8,0.8,0.7c0.3-0.1,0.6-0.4,1-0.4s0.7,0.3,1.1,0.5c0.1,0,0.2,0,0.4,0.1c0.3,0.1,0.4,0.1,0.6-0.2
	c0.5-0.6,0.6-0.6,1,0.2c0.1,0.2,0.1,0.4,0.4,0.4c0.4,0,0.8,0,1.2,0c0-0.1-0.1-0.3-0.1-0.4c0.1-0.2,0.3-0.5,0.5-0.5
	c0.3,0,0.5,0.2,0.5,0.6c0,0.1-0.1,0.2-0.2,0.3c0,0.1,0.2,0.2,0.2,0.2c0.4-0.3,1.2,0.1,1.4-0.5c0.2-0.4,0.4-0.6,0.8-0.7
	c0.4-0.2,0.3-0.6,0.3-1c0-0.3-0.2-0.3-0.5-0.4c-0.2-0.1-0.5-0.3-0.5-0.5c0-0.5-0.3-0.5-0.7-0.5c-0.3,0-0.7,0.1-0.8,0.4
	c-0.1,0.4-0.4,0.6-0.8,0.6s-0.7,0.1-0.5,0.7c0.1,0.4-0.4,0.7-0.7,0.4c-0.4-0.4-0.8-0.3-1.3-0.4c-0.2,0-0.5-0.2-0.5-0.3
	c0-0.2,0.1-0.5,0.3-0.6c0.1-0.1,0.3-0.1,0.5-0.1c1.2-0.1,2-0.8,2.5-1.9c0.4-0.8,0.2-1.7-0.4-2.3c-0.6-0.6-1.3-0.7-2.2-0.3
	c-1.1,0.5-1.7,1.3-2,2.5c0,0.2-0.1,0.4-0.2,0.6c-0.1,0.1-0.4,0.2-0.5,0.2s-0.3-0.3-0.3-0.5c0.2-0.9,0.3-1.9,1-2.4
	c0.5-0.5,0.8-1.1,0.7-1.9c-0.1-0.8-1.2-1.6-1.9-1.5c-0.7,0.2-1.6,1.1-1.6,1.9c0,0.8,0,1.7,0.1,2.5C92.3,36,92.8,37.8,92.5,39.6z"/>
<path class="st0" d="M100.6,38.4c0.2,0.3,0.4,0.5,0.4,0.6c0,0.2-0.3,0.4-0.5,0.4s-0.4-0.3-0.4-0.5C100.1,38.8,100.4,38.6,100.6,38.4
	z"/>
<path class="st0" d="M49.8,33.3c-0.1,0.8-0.2,1.5-0.3,2.2c-0.1,0.8-0.3,1.6-0.4,2.4c-0.2,1.2,0,2.4,0.8,3.5c0.1,0.1,0.1,0.1,0.2,0.2
	c0,0.2,0.1,0.4,0.1,0.7c-0.2,0-0.5,0.1-0.7,0c-0.4-0.2-0.8-0.5-1.2-0.6c-1.2-0.5-2.5-0.4-3.8-0.1c-1.3,0.3-2.7,0.4-4.1,0.4
	c-1.2-0.1-2.4-0.9-2.8-2.1c-0.4-1.1,0.1-2.4,1.2-3c0.3-0.1,0.5-0.2,0.8-0.3c0.4-0.1,0.6-0.4,0.6-0.9c0-1.7,0.8-2.7,2.4-3.1
	c0.3-0.1,0.6-0.1,0.8,0c0.4,0.1,0.6-0.1,0.7-0.4c0-0.2,0.1-0.3,0.1-0.5c0.6-1.5,1.7-2.1,3.2-1.7c0.9,0.2,1.5,0.9,1.9,1.9
	C49.7,32.2,49.7,32.7,49.8,33.3z M48.8,33.4c0-1.4-0.3-2-1-2.5c-0.3-0.2-0.7-0.4-1-0.4c-1.1,0.1-1.9,1.4-1.4,2.4
	c0.1,0.3,0.3,0.5,0.5,0.7c0.8,0.6,0.9,1.5,1.1,2.4c0.1,0.3,0.1,0.6-0.3,0.7c-0.3,0-0.5-0.2-0.6-0.5c0-0.2,0-0.3-0.1-0.5
	c-0.3-1-0.9-1.9-1.9-2.3c-0.9-0.4-1.6-0.3-2.3,0.4c-0.6,0.6-0.7,1.5-0.3,2.3c0.5,1.1,1.3,1.9,2.6,1.9c0.2,0,0.4,0,0.5,0.1
	s0.3,0.4,0.2,0.5c0,0.1-0.3,0.3-0.4,0.3c-0.5,0-1-0.1-1.4,0.4c-0.2,0.3-0.7,0-0.6-0.4c0.2-0.6-0.1-0.7-0.6-0.7
	c-0.4,0-0.6-0.2-0.7-0.5c-0.2-0.5-0.6-0.5-1-0.5c-0.8-0.1-0.5,1.3-1.4,1.1c0,0-0.1,0.3-0.2,0.4c0,0.5,0,0.9,0.6,1
	c0.4,0.7,0.9,1.1,1.7,1.2c0.4,0,0.5-0.1,0.3-0.4c-0.3-0.4,0-0.7,0.3-0.7s0.6,0.2,0.5,0.6c0,0.1,0,0.3,0,0.3c0.4,0,0.8,0,1.2,0
	c0.4,0,0.2-0.4,0.3-0.6c0.3-0.5,0.6-0.6,0.9,0c0.2,0.3,0.4,0.3,0.7,0.2c0.3-0.1,0.6,0,0.8-0.2c0.4-0.4,0.7-0.3,1.1,0
	c0.7,0.5,1.1,0.2,1.2-0.8c0-1.1-0.1-2.1,0.2-3.2C48.7,35.3,48.7,34.4,48.8,33.4z"/>
<path class="st0" d="M40.2,38.4c0.2,0.3,0.5,0.4,0.5,0.6c0,0.2-0.3,0.5-0.4,0.5c-0.2,0-0.4-0.3-0.5-0.4C39.7,38.9,40,38.6,40.2,38.4
	z"/>
<path class="st0" d="M92.9,78c0-0.7-0.1-1.7-1.2-1.7c-14.6,0-27.8,0-42.4,0c-1,0-1.5,0.5-1.5,1.5c0,0.3,0,17.5,0,17.9
	c0.1,2.4,0,5,0.4,7.3c0.4,2.2,1,4.2,2.1,6.2c1.9,3.5,4.6,6.5,7.9,8.7c3.5,2.4,7.2,4,11.2,5.3c0.7,0.2,1.4,0.2,2.1,0
	c3-0.9,5.6-2.1,8.3-3.5c2-1.1,4-2.4,5.7-4c2.5-2.4,4.6-5,5.8-8.2c0.9-2.2,1.6-4.6,1.6-7.1c0-1.7,0-3.3,0-5.1
	C92.8,94.3,92.9,78.9,92.9,78z M92,99.8c0,3-0.7,5.6-1.9,8.3c-1.2,2.5-2.7,4.7-4.7,6.6c-2.7,2.5-5.7,4.5-9.2,5.8
	c-1.7,0.7-3.5,1.4-5.2,2c-0.4,0.1-0.7,0.1-1,0c-4-1.2-7.8-3-11.2-5.2c-3.6-2.5-6.4-5.6-8.2-9.7c-0.8-1.9-1.3-3.8-1.5-5.8
	c-0.2-1.7-0.2-3.3-0.2-5.1c0-6,0-11.8,0-17.7c0-0.3,0-0.6,0-0.9c0-0.4,0.2-0.6,0.6-0.6c0.3,0,0.6,0,0.9,0c6.7,0,13.4,0,20.1,0
	s13.5,0,20.2,0c1.4,0,1.4,0,1.4,1.4C92,85.8,92.1,92.7,92,99.8z"/>
<path class="st0" d="M89,78.9c0.3,0,0.6,0,0.9,0c0.4,0,0.6,0.2,0.6,0.6c0,0.3,0,0.5,0,0.8c0,6.3,0,12.6,0,19c0,4.1-1.1,7.9-3.6,11.3
	c-1.3,1.9-3,3.5-4.8,4.7c-3.3,2.4-6.9,4-10.8,5.3c-0.5,0.2-1,0.2-1.6,0c-3.5-1.2-6.8-2.6-9.9-4.7c-2.7-1.9-5-4-6.7-6.8
	c-1.1-1.9-1.9-3.7-2.2-5.8c-0.4-1.9-0.5-4-0.5-5.8c0-5.6,0-11.3,0-16.9c0-0.3,0-0.6,0-0.9c0-0.6,0.2-0.7,0.7-0.8c0.3,0,0.6,0,0.9,0
	C58.1,78.9,82.7,78.9,89,78.9z M59.7,79.9c-2.6,0-5.1,0-7.8,0c-0.6,0-0.6,0-0.7,0.6c0,0.3,0,0.6,0,0.9c0,5.6,0,11,0,16.5
	c0,1.4,0,2.7,0.2,4.1c0.3,1.9,0.8,3.7,1.7,5.5c1.4,2.7,3.5,5.1,5.8,6.8c3.1,2.4,6.7,4,10.4,5.2c0.6,0.2,1.2,0.2,1.9,0
	c2.1-0.7,4.1-1.5,6.1-2.5c3-1.6,5.7-3.5,7.9-6.2c2.7-3.2,4.1-6.9,4.1-11.1c0.1-6.3,0-12.6,0-19c0-0.2,0-0.4,0-0.6
	c0-0.3-0.2-0.4-0.5-0.4s-0.7,0-1,0C82.1,79.9,63.3,79.9,59.7,79.9z"/>
<path class="st0" d="M70.3,49.5c13.2,0,26.4,0,39.7,0c0.8,0,1.6,0.1,2.3,0.2c0.9,0.2,1.5,0.8,1.9,1.6c0.3,0.6,0.5,1.2,0.4,1.9
	c0,2.2,0,4.6,0,6.7c0,0.2,0,0.4,0,0.6c0,0.6,0.2,0.7,0.7,0.5c1.1-0.5,2.3-1,3.5-1.6c1.7-0.8,3.3-1.6,5.1-2.2
	c1.9-0.6,3.7-0.7,5.3-0.7c0.4,0,0.5,0.2,0.5,2.5c0,0.9-0.3,1.5-1.1,2.1c-1.7,1.4-3.3,3-4.6,4.7c-0.1,0.2-0.2,0.4-0.3,0.5
	c-0.1,0.4-0.1,0.6,0.3,0.9c1.6,1.4,3.2,3,5,4.3c0.4,0.4,0.7,0.7,0.7,2.1c0,0.8,0.1,1.5-1.6,1.9c-3.1,0.7-6.2,1.6-9.3,2.7
	c-2.2,0.8-4.6,1.6-6.8,2.1c0,0-0.1,0-0.1,0.1c-1.9,0.1-3.8,0.5-5.7-0.1c-1.3-0.4-2-1.3-2.2-2.7c-0.1-0.6,0-1.2,0-1.9
	c0-2.2,0-4.3,0-6.6c0-1-0.1-1-1.1-1c-0.3,0-0.7,0-1,0c-21.1,0-42,0-63,0c-0.1,0-0.2,0-0.2,0c-1.4,0-1.5,0.2-1.5,1.6
	c0,1.3,0.1,2.6,0.1,4s0,3.1-0.1,4c-0.2,1.4-0.9,2.4-2.2,2.7c-1,0.3-2.1,0.4-3.2,0.4c-1.7,0-4.8-0.7-7.2-1.5c-2-0.7-4-1.5-6.1-2.1
	c-2.1-0.6-4.2-1.3-6.3-1.6c-0.6-0.1-0.9-0.4-0.9-1c0-0.1,0-0.3,0-0.4c0-1.9,0.6-2.5,1.6-3.3c0.3-0.2,0.5-0.4,0.8-0.6
	c1.1-0.9,2.1-1.9,3.1-2.8c0.6-0.5,0.6-0.6,0.2-1.2c-0.4-0.7-0.9-1.3-1.4-1.9c-1.2-1.2-2.5-2.3-3.7-3.5c-0.5-0.4-0.8-0.8-0.8-1.4
	c0-2,0-3,0.5-3c1.2,0,2.7,0,4.2,0.4c2.6,0.6,4.8,1.9,7.2,3c0.8,0.4,1.6,0.7,2.4,1.1c0.4,0.2,0.6-0.1,0.7-0.3c0.1-0.3,0-0.6,0-0.9
	c0-2.2,0-4.3,0-6.6c0-1.3,0.5-2.3,1.3-3.2c0.1-0.1,0.3-0.2,0.5-0.2c0.9-0.3,1.9-0.4,2.8-0.4C43.8,49.5,57.1,49.5,70.3,49.5z
	 M24.7,62c-0.4-0.1-0.8,0.1-1.1,0c-0.3-0.1-0.5-0.7-0.8-0.9c-2.1-1.1-4.3-2.2-6.7-3c-1.9-0.5-3-0.5-3.1-0.5c0,0.1,1.9,1.6,2.5,2.3
	c0.6,0.6,1.2,1.3,1.7,1.9c0.9,1.2,1.9,2.3,2.8,3.5c0.3,0.4,0.2,0.6-0.1,0.8c-1,0.8-2,1.5-3,2.3c-1.4,1.2-2.7,2.4-4,3.6
	c-0.3,0.3-0.2,0.5,0.2,0.6c0.7,0.2,1.4,0.2,2,0.4c1.9,0.6,3.8,1.2,5.8,1.7c0.3,0.1,0.8,0.2,1.1,0.1c0.6-0.3,0.8-0.1,1,0.5
	c0,0.1,0.2,0.3,0.3,0.3c0.5,0.2,1,0.3,1.5,0.6c0.4,0.2,0.7,0.3,1.1-0.1c0.4-0.3,0.6-0.2,0.8,0.2c0.1,0.2,0.1,0.5,0.2,0.5
	c0.8,0.2,1.6,0.5,2.4,0.5c0.5,0,0.9-0.1,1.4,0.2c0.3,0.2,1,0.3,1.4-0.2c0.2-0.3,0.5-0.3,0.7,0c0.1,0.1,0.4,0.2,0.4,0.1
	c0.1-0.1,0.3-0.4,0.2-0.5c-0.1-0.3-0.3-0.8-0.5-0.9c-1-0.7-2-1.3-3-1.9C29.5,74,29.3,74,29,74.2c-0.1,0.1-0.4,0.2-0.5,0.1
	c-0.2-0.1-0.3-0.3-0.2-0.6c0.2-0.6,0.1-0.7-0.6-0.6c-0.5,0.1-0.7-0.1-0.6-0.6c0.1-0.6,0.1-0.7-0.7-0.6c-0.2,0-0.4,0-0.5-0.2
	c-0.1-0.1-0.1-0.4,0-0.5c0.5-0.4,0.3-0.8,0.2-1.4c-0.1-0.4-0.5-0.7-0.3-1.2c0.3-0.7,0.1-1.3,0-2.1c-0.1-0.7,0.2-1.5,0.1-2.2
	c-0.1-0.4,0-0.8,0.1-1.2c0.1-0.4-0.1-0.8-0.4-1.1C25.3,62.2,24.8,62,24.7,62z M114.6,63.3c0.1,0.5,0.1,1,0,1.5
	c-0.1,0.6,0.1,1.2,0.1,1.7c0,0.6-0.3,1.2-0.1,1.9c0.2,0.7,0,1.4-0.2,2c-0.1,0.4-0.1,0.6,0.2,0.9c0.2,0.2,0.3,0.4,0.1,0.6
	s-0.4,0.2-0.7,0.1c-0.5-0.2-0.6,0-0.6,0.6c0.1,0.6-0.1,0.7-0.6,0.6c-0.7-0.1-0.8,0-0.6,0.6c0.1,0.3,0,0.5-0.2,0.6
	c-0.1,0.1-0.4,0-0.5-0.1c-0.3-0.3-0.5-0.3-0.8-0.1c-1,0.7-2,1.2-3,1.9c-0.3,0.2-0.4,0.6-0.5,0.9c0,0.1,0.1,0.4,0.2,0.5
	c0,0,0.3-0.1,0.4-0.1c0.2-0.2,0.4-0.3,0.7,0c0.6,0.6,1.2,0.5,1.9,0c0.1-0.1,0.4-0.1,0.5-0.1c0.3,0,0.7,0.1,1,0.1
	c0.4-0.1,0.8-0.3,1.2-0.4c0.5-0.1,0.9-0.1,1-0.8c0-0.2,0.4-0.4,0.6-0.2c0.5,0.6,0.9,0.3,1.4,0.1c0.4-0.2,0.8-0.3,1.1-0.4
	c0.3-0.1,0.4-0.2,0.5-0.5c0.2-0.6,0.3-0.6,0.8-0.3c0.3,0.2,0.6,0,0.8-0.1c1.5-0.4,3-0.9,4.5-1.3c1.2-0.3,2.5-0.6,3.7-0.9
	c0.5-0.1,0.6-0.3,0.2-0.7c-1.2-1.3-2.6-2.5-4-3.5c-1-0.7-1.9-1.5-2.8-2.2c-0.3-0.2-0.4-0.4-0.1-0.8c1.3-2,3-3.7,4.6-5.6
	c0.2-0.2,0.5-0.4,0.8-0.6c0.4-0.4,0.8-0.7,1.2-1.1c0.1-0.1,0.4-0.3,0.4-0.4c-0.1,0-2.2,0.3-3,0.5c-2,0.5-3.8,1.3-5.6,2.3
	c-0.6,0.3-1.4,0.3-1.6,1c-0.3,1-1.1-0.1-1.7,0.4C115.3,62.3,114.5,62.7,114.6,63.3z M108.4,65.2c0.3,0,2.3,0,3.6,0.4
	c0.3,0.1,0.5,0.1,0.7-0.3c0.1-0.2,0.4-0.4,0.4-0.3c0.5,0.2,0.6,0,0.5-0.4c0-0.2,0-0.5,0-0.7c0-0.4,0-0.6-0.5-0.4
	c-0.1,0-0.5-0.1-0.5-0.4s0.4-0.5,0.5-0.5c0.5,0.2,0.6,0,0.5-0.4c0-0.2,0-0.5,0-0.7c0-0.4,0-0.7-0.5-0.4c-0.1,0-0.5-0.2-0.5-0.4
	c0-0.3,0.4-0.5,0.5-0.5c0.5,0.2,0.6,0,0.5-0.4c0-0.2,0-0.5,0-0.7c0-0.4,0-0.7-0.5-0.4c-0.1,0-0.5-0.1-0.5-0.4s0.4-0.5,0.5-0.5
	c0.4,0.1,0.6,0,0.5-0.4c0-0.2,0-0.5,0-0.7c0-0.3,0-0.7-0.5-0.4c-0.1,0-0.5-0.2-0.5-0.4c0-0.2,0.4-0.5,0.5-0.5
	c0.4,0.1,0.6,0.1,0.5-0.4c0-0.3,0-0.6,0-0.9c0-0.5-0.2-0.3-0.5-0.3c-0.1,0-0.4-0.3-0.5-0.4c0-0.1,0.2-0.4,0.3-0.5
	c0.5-0.3,0.5-0.4,0.2-0.8c-0.6-0.8-1.4-1.4-2.5-0.9c-0.1,0-0.2,0-0.3,0c-0.6-0.1-1.1-0.2-1.7-0.2c-24.1,0-48.1,0-72.2,0
	c-2.1,0-4.2-0.3-6.3,0.2c-0.1,0-0.2,0-0.2,0c-0.5-0.3-1-0.3-1.4,0c-0.4,0.3-0.8,0.7-1.2,1.1c-0.2,0.3-0.2,0.5,0.2,0.5
	c0.3,0,0.6,0.3,0.4,0.6c-0.1,0.2-0.4,0.3-0.6,0.3c-0.3-0.1-0.4-0.1-0.4,0.2c0,0.4,0,0.8,0,1.2c0,0.4,0.2,0.2,0.4,0.2
	c0.3-0.1,0.6,0.1,0.6,0.5c0,0.3-0.2,0.6-0.6,0.4C27,56,26.8,56,26.8,56.4c0,0.3,0,0.7,0,1c0,0.5,0.1,0.6,0.5,0.4
	c0.1,0,0.5,0.3,0.5,0.5s-0.4,0.5-0.5,0.4c-0.5-0.2-0.5,0.1-0.5,0.4c0,0.2,0,0.5,0,0.7c0,0.4,0.1,0.6,0.5,0.4c0.1,0,0.5,0.2,0.5,0.5
	s-0.4,0.5-0.5,0.4c-0.5-0.2-0.5,0-0.5,0.4c0,0.2,0,0.5,0,0.7c0,0.4,0,0.6,0.5,0.4c0.1,0,0.5,0.2,0.5,0.5c0,0.2-0.4,0.5-0.5,0.5
	c-0.5-0.2-0.5,0-0.5,0.4c0,0.9,0.3,0.6,0.6,0.9c0.1,0.1-0.1,0.5-0.2,0.6c-0.3,1,1,0.3,1.5,0.2c0.6-0.2,2.4-0.2,3-0.2
	C44.6,65.2,95.6,65.2,108.4,65.2z M70.2,67.6c12.6,0,25.3,0,37.8,0c0.8,0,1.6,0,2.4,0c1.5,0.1,2.1,0.8,1.9,2.4
	c0,0.2-0.1,0.5-0.3,0.6c-0.5,0.5-1,1-1.6,1.4c-1.3,0.9-2.7,1.9-4,2.7c-0.9,0.6-1.4,1.3-1.7,2.4c-0.2,0.7,0,1.3,0.3,1.9
	s0.8,0.9,1.3,1c1.4,0.4,3,0.4,4.3,0.2c2.2-0.4,4.5-1,6.6-1.9c3.2-1.2,6.4-2.2,9.7-3c0.4-0.1,0.9-0.2,1.3-0.3c0.4-0.1,0.4-0.5,0.4-1
	c0-0.6-0.9-0.3-1.1-0.2c-2.6,0.7-5.2,1.2-7.8,2.2c-1,0.4-1.9,0.9-3,1.2c-2.2,0.6-4.3,1.5-6.7,1.7c-0.8,0.1-1.6,0.1-2.5,0.1
	c-0.8,0-1.4-0.5-1.7-1.1c-0.3-0.7,0-1.3,0.5-1.9c0.6-0.5,1.2-0.9,1.9-1.3c1.2-0.8,2.4-1.5,3.5-2.4c1.7-1.2,2-3.1,1.2-4.7
	c-0.2-0.4-0.5-0.7-0.9-0.8c-0.9-0.4-1.9-0.5-2.8-0.6c-1.9,0-3.8,0-5.7,0c-24.1,0-48.2,0-72.3,0c-0.8,0-1.6,0.1-2.3,0.2
	c-0.8,0.2-1.5,0.6-1.9,1.5c-0.5,1.4-0.3,2.6,0.7,3.7c0.6,0.6,1.3,1.1,1.9,1.5c1,0.7,2.1,1.3,3.1,2c0.5,0.4,1,0.9,1.4,1.4
	c0.4,0.7,0.3,1.2-0.3,1.9c-0.5,0.4-1,0.6-1.6,0.6c-2,0-3.8-0.4-5.7-0.9c-3.2-0.9-6.2-2.4-9.4-3.2c-1.5-0.4-3-0.8-4.5-1.1
	c-0.8-0.2-1.2,0.2-0.9,0.9c0.1,0.2,0.5,0.5,0.7,0.5c3,0.5,5.7,1.4,8.4,2.4c3,1,5.7,2.1,8.8,2.6c1.5,0.2,3,0.2,4.3-0.1
	c0.6-0.2,1.1-0.6,1.4-1.2c0.6-1.1,0.3-2-0.3-3c-0.4-0.6-0.8-1.1-1.5-1.5c-0.8-0.4-1.5-0.9-2.2-1.4c-1.1-0.6-2.1-1.3-3-2.2
	c-1.1-1.2-0.7-2.6,0.9-3c0.3-0.1,0.6-0.1,0.9-0.1C43.7,67.6,57,67.6,70.2,67.6z M36.2,70.4c-0.1-0.5-0.3-0.9-0.3-1.4
	c0-0.3-0.2-0.4-0.5-0.4c-0.2,0-0.4,0-0.6,0c-0.4,0-0.7,0-0.4,0.5c0,0.1-0.3,0.3-0.5,0.5c-0.2-0.2-0.5-0.4-0.5-0.5
	c0.2-0.5-0.1-0.5-0.4-0.5s-0.6,0-0.9,0s-0.4,0-0.3,0.4c0.1,0.3-0.1,0.6-0.5,0.6c-0.3,0-0.5-0.2-0.4-0.6c0-0.1,0.2-0.3-0.1-0.3
	c-1-0.2-1.3,0-1.5,0.9c-0.1,0.4,0.1,0.6,0.5,0.5c0.7-0.1,0.9,0,0.7,0.6c-0.2,0.5,0,0.5,0.4,0.5c0.3,0,0.7-0.1,0.9,0.3
	c0.2,0.6,0.7,0.7,1.2,1c0.8,0.5,1.5,1.1,2.2,1.6c0.2,0.2,0.4,0.4,0.7,0.5c0.1-0.3,0.1-0.6,0.2-0.8c0.2-0.6,0.2-1.1,0-1.7
	c-0.1-0.3,0-0.6,0-0.8C36,70.9,36,70.6,36.2,70.4z M105.7,68.6c-0.2,0-0.3,0-0.5,0c-0.1,0-0.3,0.1-0.3,0.2c-0.1,0.8-0.6,1.6-0.1,2.4
	c0.1,0.2,0.1,0.4,0,0.6c-0.5,0.8,0,1.6,0,2.4c0,0.2,0.1,0.3,0.3,0.1c1-0.9,2.1-1.7,3.3-2.4c0.1-0.1,0.3-0.1,0.3-0.2
	c0.2-0.7,0.6-0.8,1.2-0.7c0.2,0,0.4-0.1,0.3-0.4c-0.1-0.2-0.2-0.4,0-0.7c0.3-0.3,0.5-0.1,0.8,0s0.5-0.2,0.4-0.5
	c-0.2-0.9-0.3-0.9-1.3-0.9c-0.3,0-0.5,0-0.4,0.5c0,0.1-0.3,0.3-0.4,0.5c-0.2-0.1-0.5-0.4-0.5-0.4c0.3-0.6-0.1-0.6-0.5-0.6
	c-0.2,0-0.5,0-0.7,0c-0.4,0-0.4,0.1-0.3,0.5c0,0.1-0.3,0.5-0.4,0.5c-0.3,0-0.6-0.2-0.5-0.6c0.2-0.4,0-0.4-0.3-0.4
	C106,68.6,105.8,68.6,105.7,68.6z M128.8,59c0-0.2,0.1-0.8,0-0.8c-0.2,0-0.8,0.6-0.9,0.6c-2.1,2-4.2,4-5.9,6.5
	c-0.2,0.3-0.2,0.5,0.1,0.7c0.5,0.5,0.8,0.5,1.2-0.1c0.8-1.3,1.9-2.5,3-3.6c0.6-0.6,1.4-1.2,2-1.9C128.6,60.1,128.8,59.8,128.8,59z
	 M12.4,60.5c0.6,0.5,1.1,1,1.7,1.5c0.5,0.4,1.1,0.9,1.6,1.6c0.7,0.8,1.3,1.7,1.9,2.6c0,0.1,0.1,0.1,0.2,0.2c0.3,0.3,0.6,0.1,0.9-0.2
	c0.2-0.2,0.5-0.4,0.2-0.7c-0.7-0.9-1.5-1.9-2.3-2.8c-1.1-1.2-2.2-2.2-3.3-3.5c-0.2-0.2-0.4-0.4-0.6-0.6c-0.3-0.2-0.6-0.3-0.6,0.3
	C12,60,12,60.1,12.4,60.5z"/>
<path class="st0" d="M28.8,54.7c-0.2-0.3-0.4-0.5-0.4-0.6c0-0.2,0.3-0.4,0.5-0.4c0.2,0,0.4,0.3,0.4,0.5C29.2,54.2,29,54.4,28.8,54.7
	z"/>
<path class="st0" d="M112.5,54.1c-0.3,0.2-0.5,0.4-0.6,0.4c-0.2,0-0.4-0.3-0.4-0.5c0-0.2,0.3-0.4,0.5-0.4
	C112.1,53.6,112.2,53.8,112.5,54.1z"/>
<path class="st0" d="M28.2,56.5c0.3-0.2,0.5-0.4,0.6-0.4c0.2,0,0.4,0.3,0.4,0.5c0,0.2-0.3,0.4-0.5,0.4C28.6,57,28.4,56.7,28.2,56.5z
	"/>
<path class="st0" d="M111.8,55.9c0.2,0.3,0.5,0.4,0.5,0.6c0,0.2-0.3,0.5-0.4,0.5c-0.2,0-0.4-0.3-0.5-0.4
	C111.4,56.4,111.6,56.2,111.8,55.9z"/>
<path class="st0" d="M28.8,59.7c-0.2-0.3-0.5-0.4-0.5-0.6s0.3-0.5,0.4-0.5c0.2,0,0.5,0.2,0.5,0.4C29.2,59.2,29,59.5,28.8,59.7z"/>
<path class="st0" d="M111.8,59.7c-0.2-0.3-0.4-0.5-0.4-0.6c0-0.2,0.3-0.4,0.5-0.4s0.4,0.3,0.4,0.5C112.3,59.2,112.1,59.5,111.8,59.7
	z"/>
<path class="st0" d="M28.2,61.6c0.3-0.2,0.5-0.4,0.6-0.4c0.2,0,0.4,0.3,0.4,0.5s-0.3,0.4-0.5,0.4C28.6,62.1,28.4,61.7,28.2,61.6z"/>
<path class="st0" d="M112.5,61.7c-0.3,0.2-0.5,0.4-0.6,0.4c-0.2,0-0.4-0.3-0.4-0.5s0.3-0.4,0.5-0.4
	C112.1,61.2,112.2,61.5,112.5,61.7z"/>
<path class="st0" d="M28.8,63.4c0.2,0.3,0.5,0.4,0.5,0.6c0,0.2-0.3,0.3-0.4,0.5c-0.2-0.1-0.5-0.3-0.5-0.5
	C28.3,63.9,28.6,63.8,28.8,63.4z"/>
<path class="st0" d="M112.5,64.1c-0.3,0.2-0.4,0.5-0.6,0.5s-0.5-0.3-0.5-0.4c0-0.2,0.3-0.4,0.4-0.5C112,63.7,112.2,63.9,112.5,64.1z
	"/>
<path class="st0" d="M29.5,51.5C29.1,51.7,29,52,28.9,52c-0.2,0-0.4-0.3-0.4-0.5c0-0.2,0.3-0.4,0.5-0.4C29,51,29.2,51.3,29.5,51.5z"
	/>
<path class="st0" d="M112.5,51.5c-0.3,0.2-0.4,0.5-0.6,0.5s-0.5-0.3-0.5-0.4c0-0.2,0.3-0.5,0.4-0.5C112,51,112.2,51.3,112.5,51.5z"
	/>
<path class="st0" d="M116,63.2c-0.1,0.2-0.3,0.4-0.6,0.2c-0.4-0.2-0.2-0.7,0.1-0.8C115.9,62.4,116.2,62.8,116,63.2z"/>
<path class="st0" d="M118.7,62.8c-0.3,0.2-0.5,0.4-0.6,0.4c-0.2,0-0.4-0.3-0.4-0.5s0.3-0.4,0.5-0.4S118.6,62.7,118.7,62.8z"/>
<path class="st0" d="M116.2,65.4c-0.3,0.2-0.5,0.4-0.6,0.4c-0.2,0-0.4-0.3-0.4-0.5s0.3-0.4,0.5-0.4S116,65.2,116.2,65.4z"/>
<path class="st0" d="M117.5,65.4c0.3-0.2,0.5-0.4,0.6-0.4c0.2,0,0.4,0.3,0.4,0.5s-0.3,0.4-0.5,0.4C118,65.8,117.7,65.6,117.5,65.4z"
	/>
<path class="st0" d="M116.2,66.6c0.3-0.2,0.5-0.4,0.6-0.4c0.2,0,0.4,0.3,0.4,0.5s-0.3,0.4-0.5,0.4C116.7,67.1,116.5,66.8,116.2,66.6
	z"/>
<path class="st0" d="M117,64.8c-0.2-0.3-0.5-0.4-0.5-0.6s0.3-0.3,0.4-0.5c0.2,0.2,0.4,0.3,0.5,0.5C117.4,64.3,117.1,64.4,117,64.8z"
	/>
<path class="st0" d="M115.6,67.3c0.2,0.3,0.5,0.4,0.5,0.6c0,0.2-0.3,0.3-0.4,0.5c-0.2-0.1-0.5-0.3-0.5-0.5
	C115.3,67.7,115.4,67.5,115.6,67.3z"/>
<path class="st0" d="M118.1,67.3c0.2,0.3,0.5,0.4,0.5,0.6c0,0.2-0.3,0.5-0.4,0.5c-0.2,0-0.4-0.3-0.5-0.4
	C117.7,67.7,118,67.5,118.1,67.3z"/>
<path class="st0" d="M117.5,69.1c-0.3,0.2-0.4,0.5-0.6,0.5s-0.5-0.3-0.5-0.4c0-0.2,0.2-0.5,0.4-0.5C117,68.7,117.2,68.9,117.5,69.1z
	"/>
<path class="st0" d="M115,70.4c0.3-0.2,0.5-0.4,0.6-0.4c0.2,0,0.4,0.3,0.4,0.5s-0.3,0.4-0.5,0.4C115.4,70.8,115.3,70.6,115,70.4z"/>
<path class="st0" d="M118.7,70.4c-0.3,0.2-0.4,0.5-0.6,0.5s-0.3-0.3-0.5-0.4c0.2-0.2,0.3-0.5,0.5-0.5
	C118.4,69.9,118.6,70.3,118.7,70.4z"/>
<path class="st0" d="M117.5,71.6c-0.3,0.2-0.4,0.5-0.6,0.5s-0.3-0.3-0.5-0.4c0.2-0.2,0.3-0.5,0.5-0.5
	C117,71.2,117.2,71.4,117.5,71.6z"/>
<path class="st0" d="M116.2,73c-0.3,0.2-0.4,0.5-0.6,0.5s-0.5-0.3-0.5-0.4c0-0.2,0.3-0.4,0.4-0.5C115.9,72.5,116,72.7,116.2,73z"/>
<path class="st0" d="M118.1,73.5c-0.2-0.3-0.5-0.4-0.5-0.6s0.3-0.3,0.4-0.5c0.2,0.1,0.5,0.3,0.5,0.5C118.6,73,118.4,73.2,118.1,73.5
	z"/>
<path class="st0" d="M115,74.2c-0.3,0.2-0.5,0.4-0.6,0.4c-0.2,0-0.3-0.3-0.5-0.5c0.2-0.1,0.3-0.4,0.5-0.4S114.8,74,115,74.2z"/>
<path class="st0" d="M117,73.5c0.2,0.3,0.4,0.5,0.4,0.6c0,0.2-0.3,0.4-0.5,0.4s-0.4-0.3-0.4-0.5C116.4,74,116.7,73.9,117,73.5z"/>
<path class="st0" d="M111.2,75.5c-0.3,0.2-0.5,0.4-0.6,0.4c-0.2,0-0.4-0.3-0.4-0.5s0.3-0.4,0.5-0.4C110.8,75,111,75.2,111.2,75.5z"
	/>
<path class="st0" d="M113.2,74.9c0.2,0.3,0.4,0.5,0.4,0.6c0,0.2-0.3,0.4-0.5,0.4s-0.4-0.3-0.4-0.5C112.7,75.2,112.9,75.1,113.2,74.9
	z"/>
<path class="st0" d="M115.6,74.9c0.2,0.3,0.4,0.5,0.4,0.6c0,0.2-0.3,0.4-0.5,0.4s-0.4-0.3-0.4-0.5C115.3,75.2,115.4,75.1,115.6,74.9
	z"/>
<path class="st0" d="M110,76.7c-0.3,0.2-0.4,0.5-0.6,0.5s-0.3-0.3-0.5-0.4c0.1-0.2,0.3-0.5,0.5-0.5C109.5,76.2,109.7,76.5,110,76.7z
	"/>
<path class="st0" d="M111.2,76.7c0.3-0.2,0.5-0.4,0.6-0.4c0.2,0,0.4,0.3,0.4,0.5s-0.3,0.4-0.5,0.4C111.7,77.2,111.5,76.8,111.2,76.7
	z"/>
<path class="st0" d="M23.2,62.8c-0.3,0.2-0.4,0.5-0.6,0.5s-0.5-0.3-0.5-0.4c0-0.2,0.3-0.4,0.4-0.5C22.7,62.3,22.9,62.7,23.2,62.8z"
	/>
<path class="st0" d="M25.3,63.3c-0.1,0.1-0.4,0.1-0.5,0c-0.2-0.1-0.4-0.4-0.1-0.6c0.1-0.1,0.4-0.2,0.6-0.1
	C25.5,62.8,25.5,63.1,25.3,63.3z"/>
<path class="st0" d="M24.4,64.1c-0.3,0.2-0.4,0.5-0.6,0.5s-0.5-0.3-0.5-0.4c0-0.2,0.3-0.5,0.4-0.5C23.9,63.7,24.1,63.9,24.4,64.1z"
	/>
<path class="st0" d="M23.2,65.4c-0.3,0.2-0.5,0.4-0.6,0.4c-0.2,0-0.4-0.3-0.4-0.5s0.3-0.4,0.5-0.4C22.7,64.9,22.9,65.2,23.2,65.4z"
	/>
<path class="st0" d="M25,66c-0.2-0.3-0.4-0.5-0.4-0.6c0-0.2,0.3-0.4,0.5-0.4s0.4,0.3,0.4,0.5S25.2,65.8,25,66z"/>
<path class="st0" d="M24.4,66.7c-0.3,0.2-0.5,0.4-0.6,0.4c-0.2,0-0.4-0.3-0.4-0.5s0.3-0.4,0.5-0.4C24,66.2,24.2,66.4,24.4,66.7z"/>
<path class="st0" d="M23.2,67.9c-0.3,0.2-0.4,0.5-0.6,0.5s-0.3-0.3-0.5-0.4c0.1-0.2,0.3-0.5,0.5-0.5C22.7,67.4,22.9,67.7,23.2,67.9z
	"/>
<path class="st0" d="M24.4,69.1c-0.3,0.2-0.4,0.5-0.6,0.5s-0.5-0.3-0.5-0.4c0-0.2,0.2-0.5,0.4-0.5C23.9,68.7,24.1,68.9,24.4,69.1z"
	/>
<path class="st0" d="M22.5,69.8c0.2,0.3,0.4,0.5,0.4,0.6c0,0.2-0.3,0.4-0.5,0.4c-0.2,0-0.4-0.3-0.4-0.5C22,70.3,22.3,70,22.5,69.8z"
	/>
<path class="st0" d="M25.1,71c-0.2-0.3-0.5-0.4-0.5-0.6s0.3-0.3,0.4-0.5c0.2,0.2,0.4,0.3,0.5,0.5C25.5,70.5,25.3,70.8,25.1,71z"/>
<path class="st0" d="M25.7,67.9c-0.3,0.2-0.5,0.4-0.6,0.4c-0.2,0-0.4-0.3-0.4-0.5s0.3-0.4,0.5-0.4C25.2,67.4,25.4,67.7,25.7,67.9z"
	/>
<path class="st0" d="M23.8,71c0.2,0.3,0.4,0.5,0.4,0.6c0,0.2-0.3,0.4-0.5,0.4c-0.2,0-0.4-0.3-0.4-0.5C23.3,71.4,23.6,71.4,23.8,71z"
	/>
<path class="st0" d="M23.2,73c-0.3,0.2-0.4,0.5-0.6,0.5s-0.3-0.3-0.5-0.4c0.2-0.2,0.3-0.4,0.5-0.5C22.7,72.5,22.9,72.7,23.2,73z"/>
<path class="st0" d="M24.4,74.2c-0.3,0.2-0.5,0.4-0.6,0.4c-0.2,0-0.4-0.3-0.4-0.5s0.3-0.4,0.5-0.4C24,73.7,24.2,74,24.4,74.2z"/>
<path class="st0" d="M26.9,74.1c-0.3,0.2-0.4,0.5-0.6,0.5c-0.2,0-0.5-0.3-0.5-0.4c0-0.2,0.3-0.5,0.4-0.5
	C26.4,73.7,26.6,74,26.9,74.1z"/>
<path class="st0" d="M25,73.5c-0.2-0.3-0.4-0.5-0.4-0.6c0-0.2,0.3-0.4,0.5-0.4s0.4,0.3,0.4,0.5C25.5,73.1,25.2,73.4,25,73.5z"/>
<path class="st0" d="M25.7,75.5c-0.3,0.2-0.4,0.5-0.6,0.5s-0.5-0.3-0.5-0.4c0-0.2,0.2-0.5,0.4-0.5C25.2,75,25.4,75.2,25.7,75.5z"/>
<path class="st0" d="M28.2,75.5c-0.3,0.2-0.4,0.5-0.6,0.5s-0.3-0.3-0.5-0.4c0.1-0.2,0.3-0.5,0.5-0.5C27.7,75,27.9,75.2,28.2,75.5z"
	/>
<path class="st0" d="M30.7,75.5c-0.3,0.2-0.4,0.5-0.6,0.5s-0.5-0.3-0.5-0.4c0-0.2,0.3-0.4,0.4-0.5C30.2,75,30.5,75.2,30.7,75.5z"/>
<path class="st0" d="M29.5,76.7c-0.3,0.2-0.5,0.4-0.6,0.4c-0.2,0-0.4-0.3-0.4-0.5s0.3-0.4,0.5-0.4C29,76.2,29.2,76.5,29.5,76.7z"/>
<path class="st0" d="M31.9,76.7c-0.3,0.2-0.5,0.4-0.6,0.4c-0.2,0-0.3-0.3-0.5-0.5c0.2-0.1,0.3-0.4,0.5-0.4S31.7,76.5,31.9,76.7z"/>
<path class="st0" d="M32.7,71c-0.2-0.3-0.5-0.4-0.5-0.6s0.3-0.3,0.4-0.5c0.2,0.2,0.4,0.3,0.5,0.5C33.1,70.5,32.7,70.8,32.7,71z"/>
<path class="st0" d="M35.1,69.8c0.2,0.3,0.5,0.4,0.5,0.6s-0.3,0.3-0.4,0.5c-0.2-0.2-0.5-0.3-0.5-0.5S34.9,70,35.1,69.8z"/>
<path class="st0" d="M33.8,72.4c-0.2-0.3-0.4-0.5-0.4-0.6c0-0.2,0.3-0.4,0.5-0.4s0.4,0.3,0.4,0.5C34.3,71.9,34.1,72,33.8,72.4z"/>
<path class="st0" d="M35.8,73c-0.3,0.2-0.4,0.5-0.6,0.5s-0.5-0.3-0.5-0.4c0-0.2,0.3-0.5,0.4-0.5C35.3,72.5,35.4,72.7,35.8,73z"/>
<path class="st0" d="M106.2,70.4c-0.3,0.2-0.5,0.4-0.6,0.4c-0.2,0-0.3-0.3-0.5-0.5c0.2-0.2,0.3-0.4,0.5-0.4S106,70.3,106.2,70.4z"/>
<path class="st0" d="M108.7,70.4c-0.3,0.2-0.5,0.4-0.6,0.4c-0.2,0-0.3-0.3-0.5-0.5c0.2-0.1,0.3-0.4,0.5-0.4S108.4,70.3,108.7,70.4z"
	/>
<path class="st0" d="M106.8,72.4c-0.2-0.3-0.5-0.4-0.5-0.6s0.3-0.3,0.4-0.5c0.2,0.2,0.5,0.3,0.5,0.5C107.3,71.9,107.1,72,106.8,72.4
	z"/>
<path class="st0" d="M106.2,73c-0.3,0.2-0.4,0.5-0.6,0.5s-0.5-0.3-0.5-0.4c0-0.2,0.3-0.5,0.4-0.5C105.7,72.5,106,72.7,106.2,73z"/>
<path class="st0" d="M70.3,110.8c-3.6,0-7.2,0-11,0c-1.1,0-1.2-0.1-1.3-1.3c0-0.9,0-2,0-3c0-3.1,0-6.2,0-9.4c0-0.4,0-0.7,0.1-1.1
	c0.3-1.1,1-1.6,2.1-1.5c0.8,0.2,0.8,0.2,0.8-0.5c0.1-2,0.2-4,0.3-6.1c0-0.4,0.1-0.8,0.2-1.2c0.3-1.1,1.3-1.6,2.4-1.2
	c0.1,0,0.2,0.1,0.3,0.1c0.7,0.2,1,0.1,1.3-0.7c0.2-0.5,0.4-1,0.8-1.4c1.7-1.7,3.6-2.1,5.9-1.5c1.4,0.4,2.5,1.2,3.1,2.6
	c0.4,1.1,0.8,1.2,1.9,0.8c1.5-0.5,2.6,0.3,2.6,1.9c0,2,0,4,0,6.1c0,0.9,0,0.9,0.9,1.1c1.1,0.3,1.6,0.9,1.6,2c0,0.6,0,1.2,0,1.7
	c0.1,3.5,0.1,7.2,0.2,10.7c0,0.2,0,0.5,0,0.7c-0.1,0.8-0.2,1-1.1,1C77.8,110.8,74,110.8,70.3,110.8z M68.4,107.5
	c0,0.1,0,0.5,0.6,0.5c0.6,0,1.2-0.4,1.3-0.9c0.1-0.4,0.1-0.8-0.3-1.1c-0.3-0.2-0.2-0.6,0.1-0.7c0.6-0.1,0.7-0.5,0.8-1
	c0.1-0.8,0.3-1.7,0.6-2.5c0.4-1.5,0.7-3,1.1-4.6c0-0.2,0.1-0.4,0-0.6c0-0.5-0.4-0.9-0.8-1s-0.7,0.1-1,0.6c-0.1,0.2-0.2,0.4-0.2,0.6
	c-0.5,2.1-1,4.2-1.4,6.3C69,104.4,68.4,107.2,68.4,107.5z M63.9,96.3c-0.1-0.1-0.1-0.4-0.3-0.6c-0.4-0.3-1.3-0.1-1.4,0.5
	c-0.2,0.9-0.4,1.7-0.6,2.6c-0.6,2.7-1.2,5.3-1.9,8.1c-0.1,0.3-0.2,0.6-0.1,0.8c0.2,0.4,0.5,0,0.7,0s0.4,0.1,0.6,0.2
	c0.3,0.1,0.6-0.1,0.5-0.4c-0.3-0.6-0.1-0.9,0.3-1.3c0.2-0.2,0.2-0.5,0.3-0.8c0.6-2.4,1.1-4.8,1.7-7.2C63.7,97.7,63.8,97.1,63.9,96.3
	z M66.8,96.4c0-0.4-0.4-0.8-0.8-0.8c-0.6-0.1-1,0.3-1.2,0.9c-0.6,2.5-1.2,5.1-1.7,7.6c-0.1,0.4,0,0.9,0.1,1.3
	c0.1,0.3,0.1,0.6-0.2,0.6c-0.7,0.2-0.4,1-0.7,1.3c0,0,0,0.2,0.1,0.2c0.5,0,1,0.5,1.5,0.3c0.1,0,0.2-0.2,0.3-0.3
	c-0.1-0.1-0.2-0.1-0.2-0.2c-0.5-0.5-0.5-0.8,0.1-0.9c0.5-0.1,0.5-0.3,0.6-0.6c0.3-1.2,0.6-2.4,0.8-3.5c0.4-1.9,0.9-3.7,1.3-5.6
	C66.8,96.6,66.8,96.6,66.8,96.4z M69.6,96.9c0-0.3,0-0.4,0-0.4c0-0.4-0.1-0.7-0.4-0.8c-0.4-0.1-0.8-0.1-1,0.3
	c-0.2,0.3-0.4,0.7-0.5,1.1c-0.4,1.6-0.7,3.2-1.1,4.8c-0.4,1.7-0.7,3.3-1.1,5.1c-0.2,0.7,0,1,0.7,1c0.9,0.1,1,0,1.1-1
	c0-0.3,0.2-0.6,0.1-0.8c-0.1-0.4,0-0.6,0.2-0.9c0.1-0.2,0.2-0.4,0.2-0.7c0.5-2.1,1-4.3,1.5-6.5C69.5,97.7,69.6,97.1,69.6,96.9z
	 M71.9,107.9c0.9,0,1.3-0.5,1.5-1.2c0.3-1.1,0.3-2.4,0.7-3.5c0.7-2,1-4.2,1.5-6.3c0.1-0.3,0-0.6-0.1-0.8c-0.5-0.7-1.3-0.6-1.6,0.2
	c-0.2,0.7-0.3,1.4-0.5,2.1c-0.6,2.3-1.1,4.6-1.7,6.9c-0.1,0.3,0,0.7,0.1,1.1c0,0.2,0.3,0.5,0.3,0.6c-0.1,0.2-0.4,0.3-0.6,0.4
	c-0.1,0.1-0.2,0.1-0.3,0.2c0.1,0.1,0.1,0.2,0.2,0.3C71.6,107.9,71.9,107.9,71.9,107.9z M76,107.9c0.1-0.1,0.2-0.2,0.2-0.3
	c-0.1-0.7,0.2-1.3,0.5-1.9c0.1-0.3,0.1-0.6-0.2-0.9c-0.4-0.5-0.3-0.6,0.2-0.9c0.3-0.2,0.4-0.3,0.5-0.7c0.4-2.1,0.9-4.2,1.3-6.2
	c0.2-0.9,0.2-0.9-0.7-1.1c-0.7-0.1-0.9,0-1.1,0.5c0,0.1,0,0.2,0,0.2c-0.3,1.4-0.7,2.8-1,4.2c-0.2,1-0.5,2-0.6,3
	c-0.2,1-0.7,1.9-0.4,3c0,0.1-0.1,0.3-0.2,0.4c-0.1,0.2-0.1,0.3-0.2,0.5c0.2,0,0.4,0.1,0.6,0.1C75.2,107.8,75.6,107.6,76,107.9z
	 M81.5,96.8c0-0.9-0.1-1.1-0.5-1.2c-0.5-0.1-1,0.2-1.2,0.8c-0.1,0.2-0.2,0.5-0.2,0.7c-0.5,2.2-1,4.6-1.5,6.7
	c-0.1,0.4-0.2,0.9,0.2,1.4c0.4,0.5,0.3,0.6-0.3,0.9c-0.2,0.1-0.4,0.2-0.4,0.3c-0.1,0.3-0.2,0.7-0.3,1.1c0,0.2,0.1,0.5,0.4,0.3
	c0.6-0.4,1,0.4,1.5-0.1c-0.1-0.2-0.1-0.4-0.2-0.5c-0.2-0.3-0.2-0.5,0.1-0.6c0.6-0.3,0.6-0.9,0.8-1.4c0.1-0.3,0-0.4-0.4-0.3
	c-0.1,0-0.4-0.2-0.6-0.4c0,0,0.1-0.3,0.2-0.4c0.2-0.3,0.4-0.2,0.6,0l0.1,0.1c0.2,0.1,0.2,0.2,0.3-0.1c0.4-1.9,0.8-3.7,1.2-5.6
	C81.3,97.9,81.4,97.3,81.5,96.8z M71,82.7c-1.9,0-3.2,0.5-4.1,1.7c-0.3,0.3-0.3,0.8-0.1,1c0.3,0.3,1,0.5,1.3,0.3
	c0.6-0.4,1.3-0.4,2-0.2c0.2,0.1,0.5,0.3,0.7,0.2c1-0.4,1.9-0.4,3,0c0.2,0.1,0.6-0.2,0.8-0.4c0.3-0.3,0-0.6-0.2-0.7
	C73.4,83.3,72.1,82.6,71,82.7z M70.3,109.8c3.5,0,6.8,0,10.3,0c0.4,0,0.9,0.1,0.9-0.3c0-0.6-0.6-0.5-1-0.5c-6.8,0-13.7,0-20.5,0
	c-0.4,0-0.9,0-0.9,0.4c0,0.6,0.6,0.4,1,0.4C63.6,109.8,67,109.8,70.3,109.8z M70.1,87.5c0-0.5-0.3-1-0.7-1.1
	c-0.3-0.1-0.9,0.2-1.1,0.6c-0.1,0.1-0.1,0.3-0.2,0.5c-0.3,1.3-0.5,2.6-0.8,3.8c-0.2,1-0.5,2.7-0.5,2.8c-0.1,0.8,0.2,1,0.7,1
	c0.9-0.1,1.2-1,1.3-1.9c0.4-1.9,0.8-3.6,1.2-5.5C70.1,87.6,70.1,87.5,70.1,87.5z M67.1,87.5c0-0.5-0.3-0.9-0.7-1.1
	c-0.3-0.1-0.8,0.1-1,0.6c-0.1,0.2-0.2,0.5-0.3,0.8c-0.4,1.9-0.8,3.6-1.2,5.5c-0.1,0.4-0.4,1.9,0.4,1.9c0.2,0,0.3,0,0.5-0.1
	c0.6-0.3,0.9-0.8,1.1-1.4c0.3-1.5,0.7-3,1-4.5C67,88.5,67,88,67.1,87.5z M69.8,94.1c-0.1,0.5,0.2,0.7,0.6,0.7s1.1,0,1.5-1.3
	s0.7-2.8,0.8-3.5c0.2-0.8,0.4-1.6,0.5-2.4c0.1-0.6-0.2-1.1-0.7-1.3c-0.5-0.1-0.9,0.1-1.1,0.7c-0.1,0.2-0.1,0.3-0.1,0.5
	C70.8,89,69.9,93.1,69.8,94.1z M73.4,95.1c0.9,0,1.1-0.6,1.4-1.9c0.5-1.9,0.9-3.7,1.3-5.6c0.1-0.4-0.2-1-0.6-1.1
	c-0.4-0.1-0.8,0-1.1,0.4c-0.1,0.2-0.2,0.4-0.2,0.6c-0.3,1-1.3,6-1.5,6.7C72.5,94.6,72.9,95.1,73.4,95.1z M78.9,87.8
	c0-1.1,0-1.1-0.3-1.3C78,86,77.4,86.3,77.2,87c-0.2,0.5-0.3,1.1-0.4,1.7c-0.4,1.7-0.8,3.5-1.1,5.1c-0.1,0.3-0.2,0.9,0.6,0.9
	c0.7,0,1.1-0.3,1.2-0.6C77.6,94,78.8,88.5,78.9,87.8z M62.1,93.7c0,0.3-0.1,0.8,0.3,0.8c0.3,0,0.4-0.5,0.4-0.8
	c0.4-1.9,1.3-6.3,1.3-6.7c0-0.2-0.2-0.4-0.3-0.4c-0.7-0.5-1.4-0.1-1.4,0.8C62.2,89.1,62.1,93.3,62.1,93.7z M59,99.8c0,1,0,2.1,0,3.1
	c0,0.1,0.1,0.9,0.1,1c0.1-0.1,1.2-4.7,1.6-6.5c0.1-0.3,0.1-0.7,0-1c0-0.3-0.2-0.6-0.4-0.7c-0.3-0.1-0.6,0-0.9,0.1
	c-0.4,0.2-0.5,0.5-0.5,0.9C59,97.7,59,98.7,59,99.8z M81.6,101.8c-0.1,0.1-0.3,0.8-0.3,0.9c-0.1,0.5-0.8,3.7-0.8,4.5
	c0,0.8,0.4,0.7,0.8,0.7C81.6,107.8,81.7,101.9,81.6,101.8z M79.1,92.3c-0.1-0.5-0.8,2.2-0.7,2.4c0.1,0.2,0.5,0.1,0.6,0
	S79.2,92.8,79.1,92.3z"/>
<path class="st0" d="M66.9,106.9c0,0.3-0.2,0.5-0.4,0.5c-0.2,0-0.5-0.3-0.5-0.4s0.3-0.5,0.5-0.5C66.5,106.5,66.9,106.6,66.9,106.9z"
	/>
<path class="st0" d="M68.9,106.6c0.1-0.2,0.3-0.4,0.6-0.1c0.2,0.2,0.3,0.4,0.1,0.6c-0.2,0.2-0.4,0.4-0.6,0.1
	C68.9,107.1,68.8,106.8,68.9,106.6z"/>
<path class="st0" d="M72.7,105.1c0.2,0.3,0.5,0.4,0.5,0.6s-0.3,0.5-0.4,0.5c-0.2,0-0.5-0.3-0.5-0.4
	C72.2,105.5,72.5,105.3,72.7,105.1z"/>
<path class="st0" d="M75.6,106.3c-0.2-0.3-0.5-0.4-0.5-0.6s0.3-0.5,0.4-0.5c0.2,0,0.5,0.2,0.5,0.4C76.1,105.8,75.7,106,75.6,106.3z"
	/>
</svg>
